<svg xmlns="http://www.w3.org/2000/svg" viewBox="0 0 512 512">
    <rect width="512" height="512" rx="100" fill="#0085C3"/>
    <path d="M375,275 C390,275 400,265 400,250 L400,150 C400,135 390,125 375,125 L125,125 C110,125 100,135 100,150 L100,250 C100,265 110,275 125,275 L175,275 L160,325 L340,325 L325,275 L375,275 Z M250,75 C275,75 290,90 290,110 C290,130 275,145 250,145 C225,145 210,130 210,110 C210,90 225,75 250,75 Z M150,200 C165,200 175,190 175,175 C175,160 165,150 150,150 C135,150 125,160 125,175 C125,190 135,200 150,200 Z M350,200 C365,200 375,190 375,175 C375,160 365,150 350,150 C335,150 325,160 325,175 C325,190 335,200 350,200 Z" fill="#FFFFFF"/>
</svg>
